<?xml version="1.0" encoding="UTF-8" standalone="no"?>
<svg xmlns="http://www.w3.org/2000/svg" height="20mm" width="18mm">
<path d="M42.796 56.52c-.394-.225-2.617-2.234-3.395-3.068a163.313 163.313 0 0 1-1.777-1.96l-.055-1.178a.799.799 0 0 0-.287-.582s-2.806-2.353-4.155-3.535c-1.286-1.123-4.353-4.627-4.359-4.627-.226-.325-1.009-1.418-1.56-1.806-.264-.184-1.746-1.592-3.181-2.963 0 0-.734-.436-1.493-.859-.576-.326-1.148-1.1-1.25-1.466-.243-.849-1.886-2.492-2.42-2.811-.442-.259-2.136-1.361-2.44-1.608-.31-.25-.84-.757-1.246-1.146l-.186-.177c-.434-.41-3.813-3.412-3.813-3.412a.808.808 0 0 0-1.123 1.163l2.508 2.65c.36.379.568.774.79 1.191.13.243.253.474.39.685.274.424.65 1.343.77 1.661.135.358.567.563.955.503.114.294.284.724.87 1.077.004.082.014.174.038.275.076.334.161.814.162.818.044.24.192.445.404.565.006.004.673.382 1.129.904l.492.552c.48.531 1.554 1.728 1.828 2.141.012.288.012.645.012.648 0 .225.094.439.257.591.576.54 5.643 5.278 6.172 5.695.156.12.338.391.513.65.235.354.502.753.872 1.068.608.512 2.373 1.826 2.846 2.157.283.196.772.604 1.192.951.29.24.55.452.697.565l.179.14c.449.353 1.199.947 2.082 1.374.755.366 1.92 1.705 2.117 2.009.31.486.836.581 1.185.644.112.018.28.05.313.066.13.114.27.284.42.459.344.4.7.817 1.1 1.028.253.172 1.217 1.252 1.96 2.158a.81.81 0 0 0 1.433-.524c-.01-.992-.184-2.262-.946-2.666M47 49.139c-.762-.58-1.462-1.51-1.614-1.763-.119-.196-.414-.527-1.059-.527-.142 0-.287.015-.424.037-.552-.73-1.673-2.205-2.157-2.805-.279-.341-.743-.782-1.24-1.254-.624-.587-1.4-1.32-1.669-1.787l-.226-.398c-1.258-2.236-1.919-3.17-2.768-3.17-.283 0-.87-.112-1.315-.213-.668-.948-2.472-3.49-2.957-3.993-.22-.232-.631-1-.901-1.506-.332-.623-.528-.985-.719-1.206-.365-.43-.68-.522-1.014-.62a6.151 6.151 0 0 1-.661-.227c-.721-.293-2.995-2.022-3.725-2.77l-.556-.587c-.713-.761-1.52-1.621-2.167-2.07-.402-.28-1.212-.989-1.925-1.614a37.398 37.398 0 0 0-1.338-1.14c-.502-.397-5.502-5.647-8.537-8.861a.803.803 0 0 0-1.127-.048.807.807 0 0 0-.074 1.128c.173.202 4.27 4.989 5.463 6.161 1.037 1.02 2.17 2.659 2.632 3.813.515 1.285 2.139 3.473 2.206 3.566a.811.811 0 0 0 1.062.211c.162-.095.568-.279.791-.304.202.165.716 1.014 1.026 1.527.379.622.706 1.16.986 1.47.147.166.355.38.58.61.355.367 1.017 1.05 1.088 1.112.05.355.302 1.541.302 1.541.09.422.51.705.933.627.019-.004.102-.017.212-.017.21 0 .315.045.323.048.204.339.684.894 1.45 1.769.611.7 1.272 1.453 1.66 2.002.74 1.046 1.379 1.953 2.592 2.381.59.213.96.753 1.23 1.148l.167.24a1.2 1.2 0 0 1 .108.217c.144.325.444 1.008 1.443 1.037.187.002.576.395.834.653.158.162.317.32.472.452.176.157.471.392.823.672.763.61 1.81 1.444 2.343 2.029.81.894 1.512 1.664 2.344 2.157.224.133.385.3.558.477.29.3.65.672 1.162.685.086.047.274.285.378.477.08.149.205.271.355.344.011.006 1.115.56 1.743 1.125.682.616 2.46 2.559 2.477 2.577a.804.804 0 0 0 1.055.12.81.81 0 0 0 .263-1.03c-.44-.877-1.95-3.793-2.888-4.503m7.073-1.011c-.12-.171-3.003-4.195-4.855-6.466-.972-1.194-2.615-3.02-4.063-4.63-1.213-1.35-2.467-2.745-2.695-3.077l-.502-.76c-.498-.768-1.066-1.64-1.558-2.202-.35-.399-.618-.809-.877-1.204a14.12 14.12 0 0 0-.615-.881c-.355-.468-1.585-1.533-3.42-3.101a87.246 87.246 0 0 1-1.775-1.537c-.36-.327-.842-.78-1.366-1.272-1.146-1.08-2.446-2.299-3.206-2.915l-.661-.55c-1.035-.871-2.207-1.858-3.225-2.154-.912-.265-2.217-.969-2.793-1.505-.289-.271-.782-.885-1.22-1.425-.502-.624-.976-1.211-1.33-1.54-.662-.612-3.176-2.176-3.461-2.351a.81.81 0 0 0-.961 1.294c.91.802 3.442 3.137 4.237 4.303.415.605.658.992.853 1.303.303.484.5.796.986 1.396.234.294.487.594.736.888.508.597 1.081 1.276 1.253 1.632.332.699.938.86 1.302.954.208.054.33.089.416.171.805.745 1.365 1.469 1.44 1.738.228.815.837 1.512 1.37 2.128a27.485 27.485 0 0 1 1.36 1.744c.287.408.654.468.847.468.228 0 .41-.08.56-.168.12.176.276.495.372.774a.797.797 0 0 0 .166.28c.01.01.94 1.04 1.625 1.991.184.249.305.441.407.6.35.555.558.846 1.457 1.343.561.308 1.015.763 1.416 1.165.282.278.538.527.78.707.303.218.683.648.962.96.212.24.396.439.515.538.28.246.627.3.908.343.013 0 .028.004.043.007l-.009.047c-.197 1.093.414 1.453.961 1.56.492.099 1.273.358 1.86.768.212.148.437.285.675.427.508.3 1.032.613 1.528 1.188.307.36.571.77.81 1.133.485.745.869 1.333 1.485 1.45.134.025.247.038.356.047.175.016.264.026.676.427.374.356.774.811 1.158 1.244.429.486.841.947 1.181 1.257.634.575 2.676 2.518 2.676 2.518a.808.808 0 0 0 1.215-1.055" fill="#231f20"/>
<path d="M38.806 54.003c-.72-.778-1.976-2.186-1.976-2.186l-.067-1.465s-2.817-2.36-4.168-3.545c-1.35-1.18-4.49-4.775-4.49-4.775s-.885-1.27-1.361-1.605c-.478-.334-3.129-2.932-3.129-2.932s-.726-.428-1.475-.848c-.75-.42-1.47-1.368-1.636-1.95-.164-.578-1.624-2.08-2.049-2.334-.426-.249-2.174-1.38-2.542-1.676-.37-.3-1.045-.954-1.477-1.365-.432-.412-3.793-3.393-3.793-3.393l2.51 2.65c.652.689.89 1.413 1.27 1.994.38.587.847 1.812.847 1.812s.613-.202.816.184c.204.385.195.739.688.998.494.265.312.43.391.78.08.35.171.856.171.856s.783.436 1.345 1.08c.563.645 2.487 2.71 2.51 3.026.022.315.022.846.022.846s5.603 5.244 6.12 5.648c.516.405.84 1.257 1.407 1.737.569.48 2.304 1.775 2.788 2.113.482.339 1.543 1.254 1.918 1.539.374.287 1.182.972 2.123 1.427.942.458 2.209 1.94 2.444 2.3.23.363.957.195 1.356.543.396.353.919 1.143 1.385 1.393.464.253 2.179 2.34 2.179 2.34s-.018-1.696-.523-1.965c-.504-.271-2.884-2.457-3.604-3.227m5.887-6.21c-.187-.31-1.113.006-1.113.006s-1.811-2.4-2.464-3.209c-.653-.806-2.435-2.198-2.98-3.146-.545-.947-1.708-3.165-2.292-3.165-.586 0-1.801-.302-1.801-.302s-2.532-3.608-3.054-4.152c-.521-.542-1.318-2.356-1.653-2.747-.335-.391-.463-.253-1.367-.623-.903-.37-3.275-2.213-3.998-2.956-.72-.742-1.85-2.031-2.605-2.555-.755-.527-2.617-2.252-3.297-2.78-.683-.527-8.628-8.945-8.628-8.945s4.234 4.95 5.415 6.109c1.18 1.16 2.333 2.884 2.817 4.09.48 1.204 2.105 3.384 2.105 3.384s1.158-.687 1.708-.24c.552.44 1.584 2.507 2.107 3.088.52.578 1.816 1.8 1.868 2.148.05.341.294 1.485.294 1.485s1.011-.186 1.369.41c.357.594 2.322 2.654 3.042 3.67.72 1.021 1.25 1.789 2.238 2.139.986.35 1.475 1.26 1.776 1.667.3.408.233.908.92.926.686.015 1.254.815 1.82 1.308.569.499 2.408 1.856 3.231 2.764.824.906 1.443 1.582 2.157 2.005.717.423.93 1.042 1.443 1.07.51.03.96.885.96.885s1.202.597 1.924 1.248c.72.65 2.531 2.63 2.531 2.63s-1.793-3.568-2.656-4.222c-.864-.658-1.63-1.68-1.817-1.99m3.898-5.619c-1.855-2.277-6.26-6.977-6.8-7.764-.54-.793-1.367-2.163-2-2.883-.63-.72-1.02-1.473-1.525-2.13-.506-.663-3.968-3.5-5.097-4.53-1.13-1.03-3.451-3.278-4.536-4.155-1.085-.88-2.543-2.247-3.604-2.557-1.063-.308-2.46-1.076-3.118-1.691-.658-.614-1.923-2.381-2.55-2.961-.622-.578-3.336-2.258-3.336-2.258s3.344 2.95 4.37 4.454c1.028 1.503 1.021 1.685 1.8 2.65.778.966 1.781 2.034 2.09 2.678.306.645.998.38 1.538.878.538.499 1.492 1.488 1.67 2.113.175.626.696 1.235 1.202 1.82a27.882 27.882 0 0 1 1.408 1.804c.25.353.396-.147.915-.095.516.05.97 1.373.97 1.373s.96 1.059 1.68 2.057c.72.992.56 1.137 1.6 1.712 1.04.574 1.698 1.496 2.283 1.926.584.427 1.243 1.299 1.527 1.542.285.246 1.208.05 1.253.63.047.588-.345 1.022.28 1.145.624.123 1.493.426 2.167.9.676.477 1.533.796 2.352 1.75.816.953 1.361 2.223 1.838 2.315.477.095.652-.075 1.436.682.782.753 1.686 1.908 2.321 2.486.636.578 2.691 2.534 2.691 2.534s-2.968-4.147-4.825-6.425" fill="#d9172a"/>
</svg>