<?xml version="1.0" encoding="UTF-8" standalone="no"?>
<svg
   xmlns:dc="http://purl.org/dc/elements/1.1/"
   xmlns:cc="http://creativecommons.org/ns#"
   xmlns:rdf="http://www.w3.org/1999/02/22-rdf-syntax-ns#"
   xmlns:svg="http://www.w3.org/2000/svg"
   xmlns="http://www.w3.org/2000/svg"
   xmlns:sodipodi="http://sodipodi.sourceforge.net/DTD/sodipodi-0.dtd"
   xmlns:inkscape="http://www.inkscape.org/namespaces/inkscape"
   height="14mm"
   width="13mm"
   id="svg2"
   version="1.1"
   inkscape:version="0.91 r13725"
   sodipodi:docname="attack.svg">
  <metadata
     id="metadata12">
    <rdf:RDF>
      <cc:Work
         rdf:about="">
        <dc:format>image/svg+xml</dc:format>
        <dc:type
           rdf:resource="http://purl.org/dc/dcmitype/StillImage" />
        <dc:title></dc:title>
      </cc:Work>
    </rdf:RDF>
  </metadata>
  <defs
     id="defs10" />
  <sodipodi:namedview
     pagecolor="#ffffff"
     bordercolor="#666666"
     borderopacity="1"
     objecttolerance="10"
     gridtolerance="10"
     guidetolerance="10"
     inkscape:pageopacity="0"
     inkscape:pageshadow="2"
     inkscape:window-width="2495"
     inkscape:window-height="1416"
     id="namedview8"
     showgrid="false"
     inkscape:zoom="16.382132"
     inkscape:cx="29.538163"
     inkscape:cy="25.488102"
     inkscape:window-x="65"
     inkscape:window-y="24"
     inkscape:window-maximized="1"
     inkscape:current-layer="svg2" />
  <path
     d="m 34.43323,46.42792 c -0.394,-0.22 -2.617,-2.23 -3.395,-3.07"
     id="path4"
     inkscape:connector-curvature="0"
     style="fill:#231f20" />
  <path
     d="m 30.44323,43.91792 c -0.72,-0.78 -1.976,-2.19 -1.976,-2.19 l -0.067,-1.47 c 0,0 -2.817,-2.36 -4.168,-3.54 -1.35,-1.18 -4.49,-4.78 -4.49,-4.78 0,0 -0.885,-1.27 -1.361,-1.6 -0.478,-0.33 -3.129,-2.93 -3.129,-2.93 0,0 -0.726,-0.43 -1.475,-0.85 -0.75,-0.42 -1.47,-1.37 -1.636,-1.95 -0.164,-0.58 -1.624,-2.08 -2.049,-2.33 -0.426,-0.25 -2.174,-1.38 -2.542,-1.68 -0.37,-0.3 -1.045,-0.95 -1.477,-1.37 -0.432,-0.41 -3.793,-3.39 -3.793,-3.39 l 2.51,2.65 c 0.652,0.69 0.89,1.41 1.27,2 0.38,0.58 0.847,1.81 0.847,1.81 0,0 0.613,-0.2 0.816,0.18 0.204,0.39 0.195,0.74 0.688,1 0.494,0.26 0.312,0.43 0.391,0.78 0.08,0.35 0.171,0.86 0.171,0.86 0,0 0.783,0.43 1.345,1.08 0.563,0.64 2.487,2.71 2.51,3.02 0.022,0.32 0.022,0.85 0.022,0.85 0,0 5.603,5.24 6.12,5.65 0.516,0.4 0.84,1.25 1.407,1.73 0.569,0.48 2.304,1.78 2.788,2.12 0.482,0.33 1.543,1.25 1.918,1.53 0.374,0.29 1.182,0.98 2.123,1.43 0.942,0.46 2.209,1.94 2.444,2.3 0.23,0.36 0.957,0.2 1.356,0.54 0.396,0.36 0.919,1.15 1.385,1.4 0.464,0.25 2.179,2.34 2.179,2.34 0,0 -0.018,-1.7 -0.523,-1.97 -0.504,-0.27 -2.884,-2.45 -3.604,-3.22 m 5.887,-6.21 c -0.187,-0.31 -1.113,0 -1.113,0 0,0 -1.811,-2.4 -2.464,-3.21 -0.653,-0.8 -2.435,-2.2 -2.98,-3.14 -0.545,-0.95 -1.708,-3.17 -2.292,-3.17 -0.586,0 -1.801,-0.3 -1.801,-0.3 0,0 -2.532,-3.61 -3.054,-4.15 -0.521,-0.54 -1.318,-2.36 -1.653,-2.75 -0.335,-0.39 -0.463,-0.25 -1.367,-0.62 -0.903,-0.37 -3.275,-2.22 -3.998,-2.96 -0.72,-0.74 -1.85,-2.03 -2.605,-2.55 -0.755,-0.53 -2.617,-2.26 -3.297,-2.78 -0.683,-0.53 -8.6280001,-8.9499995 -8.6280001,-8.9499995 0,0 4.2340001,4.95 5.4150001,6.11 1.18,1.1599995 2.333,2.8799995 2.817,4.0899995 0.48,1.2 2.105,3.38 2.105,3.38 0,0 1.158,-0.68 1.708,-0.24 0.552,0.44 1.584,2.51 2.107,3.09 0.52,0.58 1.816,1.8 1.868,2.15 0.05,0.34 0.294,1.49 0.294,1.49 0,0 1.011,-0.19 1.369,0.41 0.357,0.59 2.322,2.65 3.042,3.67 0.72,1.02 1.25,1.78 2.238,2.13 0.986,0.35 1.475,1.26 1.776,1.67 0.3,0.41 0.233,0.91 0.92,0.93 0.686,0 1.254,0.81 1.82,1.31 0.569,0.49 2.408,1.85 3.231,2.76 0.824,0.91 1.443,1.58 2.157,2 0.717,0.43 0.93,1.05 1.443,1.07 0.51,0 0.96,0.89 0.96,0.89 0,0 1.202,0.6 1.924,1.25 0.72,0.65 2.531,2.63 2.531,2.63 0,0 -1.793,-3.57 -2.656,-4.22 -0.864,-0.66 -1.63,-1.68 -1.817,-1.99 m 3.898,-5.62 c -1.855,-2.28 -6.26,-6.98 -6.8,-7.77 -0.54,-0.79 -1.367,-2.16 -2,-2.88 -0.63,-0.72 -1.02,-1.47 -1.525,-2.13 -0.506,-0.66 -3.968,-3.5 -5.097,-4.53 -1.13,-1.03 -3.451,-3.28 -4.536,-4.16 -1.085,-0.8799997 -2.543,-2.2399995 -3.604,-2.5499995 -1.063,-0.31 -2.46,-1.08 -3.118,-1.69 -0.658,-0.62 -1.923,-2.38 -2.55,-2.96 -0.622,-0.58 -3.336,-2.26 -3.336,-2.26 0,0 3.344,2.95 4.37,4.45 1.028,1.5 1.021,1.69 1.8,2.65 0.778,0.97 1.781,2.0399995 2.09,2.6799995 0.306,0.64 0.998,0.38 1.538,0.88 0.538,0.5 1.492,1.49 1.67,2.11 0.175,0.63 0.696,1.24 1.202,1.82 a 27.882,27.882 0 0 1 1.408,1.8 c 0.25,0.36 0.396,-0.14 0.915,-0.1 0.516,0 0.97,1.37 0.97,1.37 0,0 0.96,1.06 1.68,2.06 0.72,0.99 0.56,1.14 1.6,1.71 1.04,0.58 1.698,1.5 2.283,1.93 0.584,0.42 1.243,1.3 1.527,1.54 0.285,0.25 1.208,0 1.253,0.63 0.047,0.59 -0.345,1.02 0.28,1.14 0.624,0.13 1.493,0.43 2.167,0.9 0.676,0.48 1.533,0.8 2.352,1.75 0.816,0.96 1.361,2.23 1.838,2.32 0.477,0.1 0.652,-0.1 1.436,0.68 0.782,0.75 1.686,1.91 2.321,2.49 0.636,0.58 2.691,2.53 2.691,2.53 0,0 -2.968,-4.15 -4.825,-6.42"
     id="path6"
     inkscape:connector-curvature="0"
     style="fill:#d9172a" />
</svg>
