<?xml version="1.0" encoding="UTF-8" standalone="no"?>
<svg
   xmlns="http://www.w3.org/2000/svg"
   version="1.1"
   viewBox="0 0 3.95 3.95"
   height="200"
   width="200">
    <g
       transform="matrix(0.35277777,0,0,-0.35277777,-147.4,67.25)">
      <g
         id="g624">
        <g
           transform="translate(418.2302,185.0196)"
           id="g630">
          <path
             id="path632"
             style="fill:#e3182c;fill-opacity:1;fill-rule:nonzero;stroke:none"
             d="M 0,0 C 0,2.843 2.304,5.147 5.147,5.147 7.99,5.147 10.294,2.843 10.294,0 10.294,-2.842 7.99,-5.147 5.147,-5.147 2.304,-5.147 0,-2.842 0,0" />
        </g>
        <g
           transform="translate(423.3958,190.5546)"
           id="g634">
          <path
             style="fill:#231f20;fill-opacity:1;fill-rule:nonzero;stroke:none"
             d="m 0,0 c -3.055,0 -5.54,-2.485 -5.54,-5.541 0,-3.054 2.485,-5.54 5.54,-5.54 3.055,0 5.54,2.486 5.54,5.54 C 5.54,-2.485 3.055,0 0,0 m 0,-10.496 c -2.732,0 -4.955,2.223 -4.955,4.955 0,2.733 2.223,4.956 4.955,4.956 2.732,0 4.955,-2.223 4.955,-4.956 0,-2.732 -2.223,-4.955 -4.955,-4.955 m -0.598,6.2 -0.134,-0.013 -0.273,0.131 -0.013,0.043 0.011,0.209 0.068,0.106 0.243,0.054 c 0,0 0.157,-0.034 0.484,-0.253 l 0.006,-0.055 c 0,0 -0.085,-0.114 -0.392,-0.222 m 0.731,-0.477 0.068,0.045 0.036,0.091 -0.07,0.175 C 0.098,-4.297 0,-4.172 0,-4.172 c 0,0 -0.098,-0.125 -0.167,-0.29 l -0.07,-0.175 0.036,-0.091 0.068,-0.045 0.037,0.01 0.067,0.068 0.029,0.008 0.029,-0.008 0.067,-0.068 0.037,-0.01 m 0.465,0.477 0.134,-0.013 0.273,0.131 0.013,0.043 -0.011,0.209 -0.068,0.106 -0.243,0.054 c 0,0 -0.157,-0.034 -0.484,-0.253 L 0.206,-4.074 c 0,0 0.085,-0.114 0.392,-0.222 M 4.486,-5.54 C 4.486,-6.738 4.019,-7.864 3.171,-8.711 2.324,-9.557 1.198,-10.024 0,-10.024 c -1.198,0 -2.324,0.467 -3.171,1.313 -0.848,0.847 -1.314,1.973 -1.314,3.171 0,1.197 0.466,2.323 1.314,3.17 0.847,0.846 1.973,1.313 3.171,1.313 1.198,0 2.324,-0.467 3.171,-1.313 0.848,-0.847 1.315,-1.973 1.315,-3.17 M 1.584,-4.603 C 1.546,-4.719 1.483,-4.831 1.41,-4.915 L 0.937,-4.932 0.742,-5.298 c 0.147,-0.046 0.304,-0.055 0.457,-0.037 l 0.505,0.248 c 0.176,0.088 0.3,0.212 0.333,0.397 l 0.198,0.724 c 0.103,0.326 0.427,0.52 0.731,0.503 L 3.109,-3.47 3.114,-3.511 3.244,-3.59 3.298,-3.549 3.432,-3.65 3.398,-3.702 3.478,-3.831 3.565,-3.823 3.613,-3.988 3.535,-4.004 3.533,-4.14 3.622,-4.188 3.584,-4.338 3.501,-4.324 3.422,-4.416 3.475,-4.508 3.357,-4.621 3.286,-4.561 3.174,-4.606 3.177,-4.704 3.019,-4.713 3.01,-4.671 2.886,-4.638 2.834,-4.692 2.692,-4.632 2.7,-4.569 2.6,-4.5 H 2.568 l -0.069,0.073 0.003,-0.099 0.057,-0.081 0.406,-0.291 c 0.156,-0.033 0.311,-0.068 0.471,-0.092 0.142,0.097 0.305,0.171 0.465,0.237 0.022,0.204 0.021,0.449 -10e-4,0.633 -0.048,0.201 -0.111,0.39 -0.187,0.571 L 3.626,-3.444 2.95,-3.134 H 2.6 L 2.585,-3.174 2.402,-3.229 2.35,-3.192 2.178,-3.284 2.171,-3.364 2.035,-3.491 1.95,-3.47 1.847,-3.64 1.885,-3.693 1.82,-3.849 1.701,-3.863 1.647,-4.045 1.723,-4.125 1.675,-4.316 1.552,-4.333 1.501,-4.51 Z m -5.485,-0.15 c 0.16,-0.066 0.323,-0.14 0.465,-0.237 0.16,0.024 0.315,0.059 0.471,0.092 l 0.406,0.291 0.057,0.081 0.003,0.099 L -2.568,-4.5 H -2.6 l -0.1,-0.069 0.008,-0.063 -0.142,-0.06 -0.052,0.054 -0.124,-0.033 -0.009,-0.042 -0.158,0.009 0.003,0.098 -0.112,0.045 -0.072,-0.06 -0.117,0.113 0.053,0.092 -0.079,0.092 -0.083,-0.014 -0.037,0.15 0.088,0.048 -0.002,0.136 -0.078,0.016 0.048,0.165 0.087,-0.008 0.08,0.129 -0.034,0.052 0.134,0.101 0.054,-0.041 0.13,0.079 0.005,0.041 0.143,0.007 c 0.304,0.017 0.628,-0.177 0.731,-0.503 l 0.198,-0.724 c 0.033,-0.185 0.157,-0.309 0.333,-0.397 l 0.505,-0.248 c 0.153,-0.018 0.31,-0.009 0.457,0.037 l -0.195,0.366 -0.473,0.017 c -0.073,0.084 -0.136,0.196 -0.174,0.312 l 0.083,0.093 -0.051,0.177 -0.123,0.017 -0.048,0.191 0.076,0.08 -0.054,0.182 -0.119,0.014 -0.065,0.156 0.038,0.053 -0.103,0.17 -0.085,-0.021 -0.136,0.127 -0.007,0.08 -0.172,0.092 -0.052,-0.037 -0.183,0.055 -0.015,0.04 h -0.35 l -0.676,-0.31 -0.087,-0.105 C -3.789,-3.73 -3.852,-3.919 -3.9,-4.12 -3.922,-4.304 -3.923,-4.549 -3.901,-4.753 m 1.521,-3.186 c 0.101,0.164 0.125,0.234 0.297,0.659 0.206,0.451 0.209,0.515 0.217,0.574 l -0.014,0.111 -0.101,0.225 c -0.059,0.139 -0.1,0.138 -0.105,0.139 l 0.035,-0.08 -0.047,-0.065 0.013,-0.191 0.079,-0.004 -0.007,-0.214 -0.096,-0.008 -0.04,-0.17 0.032,-0.043 C -2.151,-7.111 -2.185,-7.151 -2.224,-7.173 L -2.309,-7.125 -2.448,-7.24 -2.42,-7.345 C -2.436,-7.36 -2.522,-7.408 -2.621,-7.409 l -0.057,0.102 -0.18,-0.019 -0.018,-0.106 -0.204,0.037 -0.01,0.144 -0.155,0.057 -0.076,-0.057 -0.16,0.173 0.071,0.078 -0.097,0.165 -0.076,-0.006 -0.043,0.237 0.062,0.015 v 0.211 l -0.032,0.02 0.011,0.054 c 0.254,0.445 0.343,0.558 0.864,0.694 l 0.141,-0.003 c 0.469,-0.161 0.9,-0.341 1.328,-0.533 l 0.149,0.002 0.542,0.233 c 0.146,0.081 0.284,0.153 0.401,0.199 l -0.006,0.164 C -0.291,-5.48 -0.542,-5.377 -0.542,-5.377 -0.8,-5.579 -1.037,-5.711 -1.07,-5.711 l -0.062,0.022 -0.004,0.117 -0.162,0.096 -0.088,-0.077 -0.169,0.09 10e-4,0.1 -0.162,0.085 -0.079,-0.059 -0.14,0.055 -0.003,0.062 c -0.107,0.044 -0.178,0.036 -0.178,0.036 l -0.045,-0.063 c -0.566,0.199 -1.369,0.124 -1.578,-0.013 -0.229,-0.247 -0.289,-0.821 -0.179,-1.451 0.099,-0.564 0.419,-0.998 0.792,-1.366 0.237,0.004 0.561,0.088 0.746,0.138 m 2.297,2.063 -0.203,-0.074 C -0.332,-6.048 -0.525,-6.276 -0.601,-6.3 l -0.064,-0.004 -0.064,0.061 -0.184,-0.068 -0.003,-0.129 -0.197,-0.074 -0.08,0.076 -0.182,-0.067 -0.003,-0.117 -0.165,-0.07 -0.046,0.025 -0.073,-0.061 -0.006,-0.084 c 0,0 -0.33,-0.505 -0.567,-1.311 l 0.024,-0.195 c 0.299,-0.409 0.663,-0.768 1.138,-1.042 l 0.748,0.229 c 0.104,0.188 0.173,0.387 0.242,0.586 l -0.014,0.905 c -0.114,0.118 -0.216,0.232 -0.363,0.286 l -0.122,0.025 c 0.096,-0.046 0.079,-0.12 0.065,-0.148 l 0.093,-0.131 0.075,0.014 0.08,-0.16 -0.075,-0.05 0.045,-0.175 0.04,-0.006 0.003,-0.19 -0.106,-0.003 -0.062,-0.146 0.064,-0.1 -0.135,-0.132 -0.093,0.063 -0.132,-0.089 0.02,-0.116 -0.189,-0.05 -0.048,0.102 -0.182,-0.007 -0.037,-0.095 -0.196,0.082 0.013,0.102 -0.149,0.095 -0.071,-0.041 -0.12,0.157 0.056,0.057 -0.11,0.181 h -0.052 c -0.076,0.473 0.21,0.799 0.362,0.955 0.082,0.077 0.162,0.139 0.268,0.172 l 0.789,0.169 0.283,0.336 z m 0.126,0.731 V -5.4 l 0.183,0.056 v 0.245 l 0.064,0.008 v -0.228 l 0.157,0.069 0.021,0.212 0.054,0.006 -0.015,-0.188 0.151,0.072 0.021,0.02 0.081,0.213 -0.018,0.018 -0.065,0.008 -0.033,0.043 0.212,0.093 0.315,0.011 c 0,0 0.128,0.156 0.193,0.509 l -0.107,0.08 -0.052,0.069 -0.005,0.121 0.085,0.347 c 0,0 0.066,0.296 0.079,0.508 0.012,0.212 0.004,0.372 -0.025,0.504 0,0 -0.099,0.292 -0.409,0.521 C 0.62,-1.854 0.478,-1.861 0.325,-1.837 0.172,-1.813 0,-1.83 0,-1.83 c 0,0 -0.172,0.017 -0.325,-0.007 -0.153,-0.024 -0.295,-0.017 -0.605,-0.246 -0.31,-0.229 -0.409,-0.521 -0.409,-0.521 -0.029,-0.132 -0.037,-0.292 -0.025,-0.504 0.013,-0.212 0.079,-0.508 0.079,-0.508 l 0.085,-0.347 -0.006,-0.121 -0.051,-0.069 -0.107,-0.08 c 0.065,-0.353 0.193,-0.509 0.193,-0.509 l 0.315,-0.011 0.212,-0.093 -0.033,-0.043 -0.065,-0.008 -0.018,-0.018 0.081,-0.213 0.021,-0.02 0.151,-0.072 -0.015,0.188 0.054,-0.006 0.021,-0.212 0.158,-0.069 v 0.228 l 0.063,-0.008 V -5.344 L -0.043,-5.4 v 0.255 H 0 Z M 2.235,-8.123 C 1.998,-7.317 1.668,-6.812 1.668,-6.812 L 1.662,-6.728 1.589,-6.667 1.543,-6.692 1.378,-6.622 1.375,-6.505 1.193,-6.438 1.113,-6.514 0.917,-6.44 0.913,-6.311 0.729,-6.243 0.665,-6.304 0.601,-6.3 C 0.525,-6.276 0.332,-6.048 0.286,-5.95 L 0.083,-5.876 V -6.483 L 0.366,-6.819 1.155,-6.988 C 1.261,-7.021 1.341,-7.083 1.423,-7.16 1.575,-7.316 1.861,-7.642 1.785,-8.115 H 1.733 L 1.623,-8.296 1.679,-8.353 1.559,-8.51 1.488,-8.469 1.339,-8.564 1.352,-8.666 1.156,-8.748 1.119,-8.653 0.937,-8.646 0.889,-8.748 0.7,-8.698 0.72,-8.582 0.588,-8.493 0.495,-8.556 0.36,-8.424 l 0.064,0.1 -0.062,0.146 -0.106,0.003 0.002,0.19 0.041,0.006 0.045,0.175 -0.075,0.05 0.08,0.16 0.075,-0.014 0.093,0.131 c -0.014,0.028 -0.031,0.102 0.065,0.148 L 0.46,-7.354 C 0.313,-7.408 0.211,-7.522 0.097,-7.64 L 0.083,-8.545 C 0.152,-8.744 0.221,-8.943 0.325,-9.131 L 1.073,-9.36 c 0.475,0.274 0.839,0.633 1.138,1.042 l 0.024,0.195 m 1.683,1.412 c 0.11,0.63 0.051,1.204 -0.179,1.451 -0.209,0.137 -1.012,0.212 -1.578,0.013 l -0.045,0.063 c 0,0 -0.071,0.008 -0.178,-0.036 L 1.935,-5.282 1.795,-5.337 1.716,-5.278 1.554,-5.363 1.555,-5.463 1.386,-5.553 1.298,-5.476 1.136,-5.572 1.132,-5.689 1.07,-5.711 c -0.033,0 -0.27,0.132 -0.528,0.334 0,0 -0.251,-0.103 -0.376,-0.171 L 0.16,-5.712 C 0.277,-5.758 0.415,-5.83 0.561,-5.911 l 0.542,-0.233 0.149,-0.002 c 0.428,0.192 0.859,0.372 1.328,0.533 l 0.141,0.003 c 0.521,-0.136 0.61,-0.249 0.864,-0.694 L 3.596,-6.358 3.564,-6.378 V -6.589 L 3.626,-6.604 3.583,-6.841 3.507,-6.835 3.41,-7 3.481,-7.078 3.321,-7.251 3.246,-7.194 3.091,-7.251 3.08,-7.395 2.876,-7.432 2.858,-7.326 2.678,-7.307 2.621,-7.409 C 2.522,-7.408 2.436,-7.36 2.42,-7.345 L 2.448,-7.24 2.309,-7.125 2.224,-7.173 c -0.039,0.022 -0.073,0.062 -0.107,0.167 l 0.032,0.043 -0.04,0.17 -0.096,0.008 -0.007,0.214 0.079,0.004 0.013,0.191 -0.047,0.065 0.035,0.08 C 2.081,-6.232 2.04,-6.231 1.981,-6.37 L 1.88,-6.595 1.866,-6.706 C 1.874,-6.765 1.877,-6.829 2.083,-7.28 2.256,-7.705 2.28,-7.775 2.38,-7.939 c 0.185,-0.05 0.509,-0.134 0.746,-0.138 0.373,0.368 0.693,0.802 0.792,1.366" />
        </g>
        <g
           transform="translate(423.3958,179.4777)"
           id="g638">
          <path
             style="fill:#6f878e;fill-opacity:1;fill-rule:nonzero;stroke:none"
             d="m 0,0 c -3.053,0 -5.537,2.484 -5.537,5.536 0,3.053 2.484,5.537 5.537,5.537 3.053,0 5.537,-2.484 5.537,-5.537 C 5.537,2.484 3.053,0 0,0 m 0,10.496 c -2.734,0 -4.959,-2.225 -4.959,-4.96 0,-2.734 2.225,-4.959 4.959,-4.959 2.734,0 4.959,2.225 4.959,4.959 0,2.735 -2.225,4.96 -4.959,4.96 M 0,1.057 c -1.197,0 -2.322,0.466 -3.169,1.312 -0.846,0.846 -1.312,1.971 -1.312,3.168 0,1.196 0.466,2.321 1.312,3.167 0.847,0.846 1.972,1.312 3.169,1.312 1.197,0 2.322,-0.466 3.169,-1.312 C 4.015,7.858 4.482,6.733 4.482,5.537 4.482,4.34 4.015,3.215 3.169,2.369 2.322,1.523 1.197,1.057 0,1.057 M 0.459,3.726 C 0.32,3.675 0.22,3.571 0.116,3.462 L 0.093,3.438 0.079,2.532 0.082,2.523 C 0.149,2.33 0.219,2.13 0.322,1.944 L 0.323,1.943 1.073,1.712 1.075,1.713 C 1.513,1.967 1.886,2.308 2.214,2.757 L 2.238,2.955 C 2.008,3.737 1.687,4.243 1.672,4.266 L 1.666,4.351 1.589,4.415 1.543,4.39 1.382,4.458 1.378,4.575 1.192,4.644 1.19,4.642 1.112,4.568 1.102,4.571 0.92,4.639 0.917,4.769 0.914,4.77 0.73,4.837 0.728,4.838 0.663,4.776 0.639,4.773 0.603,4.78 C 0.525,4.805 0.334,5.035 0.29,5.129 L 0.289,5.13 0.079,5.206 V 4.592 L 0.364,4.255 1.154,4.085 C 1.258,4.053 1.336,3.993 1.42,3.914 1.502,3.83 1.607,3.713 1.686,3.557 1.781,3.368 1.813,3.169 1.781,2.966 H 1.731 L 1.73,2.964 1.62,2.783 1.618,2.78 1.621,2.778 1.674,2.725 1.639,2.679 1.558,2.572 1.487,2.612 1.335,2.515 1.348,2.413 1.158,2.333 1.122,2.428 0.934,2.434 0.887,2.333 0.704,2.381 0.724,2.496 0.588,2.589 0.586,2.587 0.494,2.525 0.364,2.654 0.427,2.75 0.429,2.752 0.428,2.754 0.363,2.903 0.26,2.905 0.262,3.088 0.302,3.095 0.348,3.275 0.346,3.276 0.273,3.323 0.275,3.329 0.27,3.327 0.351,3.479 0.426,3.464 0.428,3.467 0.519,3.597 0.521,3.599 0.52,3.602 0.515,3.676 0.584,3.744 0.581,3.752 Z m -2.131,0.54 C -1.687,4.243 -2.008,3.737 -2.238,2.955 l 0.024,-0.198 c 0.328,-0.449 0.701,-0.79 1.139,-1.044 l 0.002,-0.001 0.751,0.231 v 10e-4 c 0.103,0.185 0.173,0.385 0.24,0.578 l 0.003,0.009 -0.014,0.907 -0.023,0.024 C -0.221,3.572 -0.32,3.675 -0.459,3.726 L -0.581,3.752 -0.584,3.744 -0.515,3.676 -0.52,3.602 -0.521,3.599 -0.519,3.597 -0.428,3.467 -0.426,3.464 -0.351,3.479 -0.27,3.327 -0.275,3.329 -0.273,3.323 -0.346,3.276 -0.348,3.275 -0.302,3.095 -0.262,3.088 -0.26,2.905 -0.362,2.903 -0.428,2.754 -0.429,2.752 -0.427,2.75 -0.364,2.654 -0.493,2.525 -0.586,2.587 -0.588,2.589 -0.724,2.496 -0.704,2.381 -0.887,2.333 -0.934,2.434 -1.122,2.428 -1.158,2.333 l -0.19,0.08 0.013,0.102 -0.152,0.097 -0.071,-0.04 -0.081,0.106 -0.035,0.047 0.053,0.053 0.003,0.002 -0.002,0.003 -0.11,0.181 -0.001,0.002 h -0.05 c -0.078,0.497 0.252,0.837 0.361,0.948 0.084,0.079 0.162,0.139 0.266,0.171 l 0.79,0.17 0.285,0.337 V 5.206 L -0.289,5.13 -0.29,5.129 C -0.334,5.035 -0.525,4.805 -0.602,4.781 L -0.639,4.773 -0.664,4.776 -0.728,4.838 -0.73,4.837 -0.914,4.77 -0.917,4.769 -0.92,4.639 -1.103,4.571 -1.112,4.568 -1.192,4.644 -1.378,4.575 -1.382,4.458 -1.543,4.39 -1.589,4.415 -1.666,4.351 Z M 2.085,4.85 1.977,4.708 1.877,4.484 1.862,4.37 1.863,4.365 C 1.87,4.306 1.879,4.234 2.08,3.795 L 2.129,3.673 C 2.256,3.358 2.287,3.283 2.377,3.136 L 2.378,3.135 H 2.379 C 2.514,3.098 2.873,3 3.125,2.996 H 3.127 L 3.128,2.997 C 3.585,3.448 3.837,3.883 3.922,4.366 4.036,5.02 3.967,5.577 3.742,5.819 3.618,5.901 3.308,5.955 2.97,5.955 2.759,5.955 2.448,5.934 2.163,5.834 L 2.118,5.896 2.117,5.897 H 2.101 L 1.936,5.861 1.934,5.86 1.931,5.798 1.794,5.743 H 1.792 L 1.745,5.779 1.717,5.803 H 1.713 L 1.552,5.717 1.55,5.716 1.551,5.616 1.386,5.529 1.301,5.604 1.299,5.605 H 1.297 L 1.134,5.508 1.132,5.507 1.128,5.39 1.07,5.37 C 1.04,5.37 0.81,5.496 0.544,5.703 L 0.542,5.704 0.54,5.703 C 0.538,5.702 0.288,5.6 0.164,5.533 L 0.163,5.532 0.156,5.362 0.158,5.361 C 0.26,5.321 0.384,5.26 0.559,5.163 L 1.101,4.93 1.191,4.922 1.253,4.927 C 1.746,5.149 2.168,5.318 2.582,5.46 L 2.721,5.463 C 3.247,5.326 3.334,5.206 3.581,4.771 L 3.591,4.721 3.56,4.701 V 4.485 L 3.622,4.47 C 3.613,4.362 3.595,4.244 3.583,4.24 L 3.572,4.239 3.508,4.246 H 3.505 L 3.405,4.076 3.476,3.998 3.321,3.83 3.248,3.886 3.247,3.888 3.087,3.829 3.077,3.685 2.88,3.649 2.861,3.752 V 3.754 H 2.858 L 2.706,3.772 2.676,3.774 2.675,3.772 2.667,3.762 2.618,3.671 C 2.527,3.674 2.443,3.717 2.424,3.734 L 2.451,3.835 2.453,3.837 2.451,3.84 2.311,3.955 2.309,3.956 2.224,3.908 C 2.192,3.927 2.158,3.96 2.122,4.07 L 2.153,4.113 2.112,4.287 2.109,4.288 2.016,4.296 2.009,4.502 2.088,4.507 2.089,4.51 2.102,4.701 2.101,4.703 2.1,4.704 2.055,4.766 2.087,4.84 2.09,4.848 2.089,4.85 H 2.086 Z M -2.97,5.955 C -3.308,5.955 -3.618,5.901 -3.741,5.82 -3.967,5.577 -4.036,5.02 -3.922,4.366 -3.837,3.883 -3.585,3.448 -3.128,2.997 l 0.001,-10e-4 h 0.002 C -2.899,3 -2.591,3.077 -2.379,3.135 h 10e-4 l 0.001,0.001 c 0.09,0.147 0.121,0.222 0.248,0.537 l 0.049,0.122 c 0.201,0.439 0.21,0.512 0.217,0.57 L -1.862,4.37 -1.877,4.484 -1.978,4.708 -2.084,4.85 H -2.086 -2.089 L -2.09,4.848 -2.086,4.84 -2.055,4.766 -2.1,4.704 -2.101,4.703 -2.102,4.701 -2.089,4.51 -2.088,4.507 -2.009,4.502 -2.016,4.296 -2.109,4.288 -2.112,4.287 -2.153,4.113 -2.121,4.07 C -2.158,3.96 -2.192,3.927 -2.224,3.908 L -2.309,3.956 -2.311,3.955 -2.451,3.84 -2.453,3.837 -2.451,3.835 -2.423,3.734 C -2.443,3.717 -2.527,3.674 -2.618,3.671 l -0.05,0.091 -0.007,0.01 -0.001,0.002 -0.03,-0.002 -0.152,-0.018 H -2.861 V 3.752 L -2.88,3.649 -3.077,3.685 -3.087,3.829 -3.246,3.888 -3.248,3.886 -3.321,3.83 l -0.155,0.168 0.071,0.078 -0.1,0.17 H -3.508 L -3.572,4.239 -3.583,4.24 c -0.012,0.004 -0.03,0.122 -0.039,0.23 l 0.062,0.015 v 0.216 l -0.031,0.02 0.01,0.051 c 0.247,0.434 0.334,0.554 0.861,0.691 L -2.58,5.46 c 0.412,-0.142 0.834,-0.311 1.326,-0.533 l 0.063,-0.005 0.089,0.007 0.542,0.234 c 0.176,0.097 0.3,0.159 0.402,0.198 l 0.002,0.001 -0.006,0.17 -0.002,0.001 C -0.288,5.6 -0.538,5.702 -0.54,5.703 L -0.543,5.704 -0.544,5.703 C -0.806,5.499 -1.041,5.37 -1.07,5.37 L -1.128,5.39 -1.132,5.507 -1.134,5.508 -1.296,5.605 H -1.299 L -1.3,5.604 -1.386,5.529 -1.551,5.616 -1.55,5.716 -1.551,5.717 -1.713,5.803 H -1.717 L -1.745,5.779 -1.792,5.743 H -1.794 L -1.931,5.798 -1.934,5.86 -1.936,5.861 -2.101,5.897 H -2.117 L -2.118,5.896 -2.163,5.834 C -2.386,5.912 -2.672,5.955 -2.97,5.955 M 0.039,5.672 0.23,5.73 V 5.974 L 0.286,5.982 V 5.752 L 0.45,5.825 0.472,6.036 0.518,6.04 0.503,5.85 0.509,5.853 0.66,5.926 0.682,5.946 0.764,6.163 0.743,6.183 0.677,6.192 0.645,6.207 0.647,6.229 0.856,6.32 1.171,6.331 h 0.002 l 10e-4,0.002 c 0.001,10e-4 0.129,0.161 0.193,0.51 L 1.368,6.845 1.367,6.846 1.259,6.927 1.214,6.985 1.209,6.995 1.204,7.114 1.289,7.46 C 1.29,7.463 1.355,7.759 1.368,7.969 1.38,8.178 1.372,8.339 1.343,8.474 1.342,8.478 1.24,8.77 0.932,8.997 0.659,9.199 0.518,9.218 0.381,9.236 L 0.325,9.244 0.137,9.256 0,9.251 -0.137,9.256 -0.325,9.244 -0.381,9.236 C -0.518,9.218 -0.659,9.199 -0.932,8.997 -1.24,8.77 -1.342,8.478 -1.343,8.475 -1.372,8.339 -1.38,8.178 -1.367,7.969 -1.355,7.759 -1.29,7.463 -1.289,7.46 L -1.204,7.113 -1.209,6.994 -1.213,6.985 -1.259,6.927 -1.367,6.846 -1.368,6.845 -1.367,6.843 c 0.064,-0.349 0.192,-0.509 0.193,-0.51 l 10e-4,-0.002 h 0.002 L -0.856,6.32 -0.647,6.229 -0.645,6.207 -0.677,6.192 -0.743,6.183 -0.764,6.163 -0.682,5.946 -0.66,5.926 -0.509,5.853 -0.503,5.85 -0.518,6.04 -0.472,6.036 -0.45,5.825 -0.286,5.752 v 0.23 L -0.23,5.974 V 5.73 l 0.191,-0.058 v 0.256 h 0.078 z m -2.967,1.939 c 0.312,0 0.596,-0.206 0.689,-0.501 L -2.041,6.386 C -2.01,6.214 -1.9,6.084 -1.706,5.986 l 0.505,-0.248 0.146,-0.009 c 0.111,0 0.217,0.016 0.314,0.046 l 0.005,0.002 -0.199,0.372 -0.473,0.016 C -1.481,6.25 -1.542,6.359 -1.58,6.473 l 0.084,0.092 -0.001,0.002 -0.052,0.178 V 6.747 L -1.671,6.765 -1.719,6.951 -1.643,7.03 V 7.032 L -1.698,7.216 -1.699,7.218 -1.817,7.231 -1.88,7.384 -1.843,7.436 V 7.438 L -1.947,7.609 -1.949,7.611 -2.034,7.59 -2.167,7.715 -2.174,7.795 -2.175,7.796 -2.349,7.889 -2.351,7.89 -2.402,7.852 -2.582,7.906 -2.597,7.947 H -2.95 L -3.628,7.637 -3.717,7.53 C -3.797,7.336 -3.859,7.148 -3.904,6.957 -3.926,6.77 -3.927,6.527 -3.905,6.324 V 6.321 L -3.903,6.32 c 0.147,-0.06 0.317,-0.135 0.465,-0.236 l 0.002,-10e-4 h 10e-4 c 0.141,0.022 0.282,0.052 0.418,0.08 l 0.053,0.012 0.407,0.291 0.059,0.084 0.003,0.11 L -2.57,6.581 H -2.601 L -2.704,6.51 -2.696,6.447 -2.714,6.438 -2.833,6.389 -2.885,6.443 -3.014,6.409 -3.022,6.368 -3.051,6.369 -3.08,6.368 -3.172,6.376 -3.171,6.44 -3.17,6.471 V 6.474 L -3.287,6.52 -3.358,6.461 -3.47,6.568 -3.418,6.66 V 6.661 6.663 L -3.498,6.756 -3.5,6.757 h -0.002 l -0.079,-0.014 -0.036,0.143 0.087,0.048 10e-4,10e-4 v 0.002 l -0.002,0.136 -10e-4,0.003 -0.077,0.016 0.047,0.158 0.017,0.001 0.066,-0.009 0.002,-0.001 0.002,0.002 0.081,0.131 0.001,0.002 -0.034,0.05 0.129,0.097 0.053,-0.041 0.002,10e-4 0.132,0.079 0.001,10e-4 0.004,0.04 0.14,0.007 0.038,10e-4 M 0.935,6.149 0.736,5.777 0.74,5.775 C 0.839,5.745 0.944,5.729 1.055,5.729 L 1.2,5.738 1.706,5.986 C 1.9,6.084 2.01,6.215 2.041,6.386 L 2.239,7.11 C 2.332,7.405 2.616,7.611 2.928,7.611 L 2.966,7.61 3.106,7.603 3.11,7.563 3.111,7.562 3.243,7.483 3.245,7.482 3.298,7.523 3.427,7.426 3.393,7.376 3.394,7.374 3.475,7.243 3.477,7.241 3.479,7.242 3.545,7.251 3.563,7.25 3.609,7.092 3.532,7.076 V 7.073 L 3.529,6.937 V 6.935 L 3.53,6.934 3.617,6.886 3.582,6.743 3.502,6.757 H 3.5 L 3.498,6.756 3.418,6.663 V 6.661 6.66 L 3.47,6.568 3.358,6.461 3.287,6.52 3.17,6.474 V 6.471 6.442 L 3.172,6.376 3.08,6.368 3.051,6.369 3.022,6.368 3.014,6.409 2.885,6.443 2.833,6.389 2.714,6.438 2.696,6.447 2.704,6.51 2.601,6.581 H 2.57 L 2.495,6.66 2.498,6.55 2.556,6.467 2.963,6.175 3.016,6.164 C 3.153,6.135 3.294,6.105 3.435,6.084 L 3.437,6.083 3.438,6.084 C 3.587,6.186 3.757,6.261 3.903,6.32 L 3.905,6.321 V 6.324 C 3.927,6.526 3.927,6.769 3.904,6.957 3.859,7.149 3.797,7.336 3.717,7.53 L 3.628,7.637 2.952,7.947 H 2.597 L 2.583,7.906 2.402,7.852 2.351,7.89 2.349,7.889 2.175,7.796 2.174,7.795 2.167,7.715 2.034,7.59 1.949,7.611 1.947,7.609 1.843,7.438 1.842,7.436 1.88,7.384 1.817,7.231 1.699,7.218 1.698,7.216 1.643,7.032 V 7.03 L 1.719,6.951 1.671,6.765 1.549,6.747 V 6.745 L 1.497,6.567 V 6.565 L 1.58,6.473 C 1.542,6.359 1.481,6.251 1.408,6.165 Z M 0.122,6.307 0.099,6.316 0.031,6.384 0,6.394 -0.031,6.384 -0.099,6.316 -0.122,6.307 -0.133,6.308 -0.198,6.352 -0.233,6.439 -0.163,6.613 C -0.102,6.76 -0.017,6.876 0,6.898 0.017,6.876 0.102,6.76 0.163,6.613 L 0.233,6.438 0.199,6.352 0.132,6.308 0.122,6.307 M 0.692,6.767 0.6,6.784 C 0.297,6.891 0.21,7.004 0.209,7.005 L 0.198,7.028 0.214,7.054 C 0.536,7.27 0.696,7.307 0.697,7.308 L 0.766,7.316 0.937,7.253 1.003,7.15 1.014,6.942 1.002,6.902 0.731,6.771 0.692,6.767 m -1.384,0 -0.039,0.004 -0.271,0.131 -0.012,0.04 0.011,0.208 0.066,0.103 0.171,0.063 0.069,-0.008 C -0.696,7.307 -0.536,7.27 -0.214,7.054 L -0.198,7.028 -0.209,7.006 C -0.21,7.004 -0.297,6.891 -0.6,6.784 L -0.692,6.767" />
        </g>
        <g
           transform="translate(423.3958,190.5546)"
           id="g642">
          <path
             style="fill:#231f20;fill-opacity:1;fill-rule:nonzero;stroke:none"
             d="m 0,0 c -3.055,0 -5.54,-2.485 -5.54,-5.541 0,-3.054 2.485,-5.54 5.54,-5.54 3.055,0 5.54,2.486 5.54,5.54 C 5.54,-2.485 3.055,0 0,0 m 0,-10.496 c -2.732,0 -4.955,2.223 -4.955,4.955 0,2.733 2.223,4.956 4.955,4.956 2.732,0 4.955,-2.223 4.955,-4.956 0,-2.732 -2.223,-4.955 -4.955,-4.955 m -0.598,6.2 -0.134,-0.013 -0.273,0.131 -0.013,0.043 0.011,0.209 0.068,0.106 0.243,0.054 c 0,0 0.157,-0.034 0.484,-0.253 l 0.006,-0.055 c 0,0 -0.085,-0.114 -0.392,-0.222 m 0.731,-0.477 0.068,0.045 0.036,0.091 -0.07,0.175 C 0.098,-4.297 0,-4.172 0,-4.172 c 0,0 -0.098,-0.125 -0.167,-0.29 l -0.07,-0.175 0.036,-0.091 0.068,-0.045 0.037,0.01 0.067,0.068 0.029,0.008 0.029,-0.008 0.067,-0.068 0.037,-0.01 m 0.465,0.477 0.134,-0.013 0.273,0.131 0.013,0.043 -0.011,0.209 -0.068,0.106 -0.243,0.054 c 0,0 -0.157,-0.034 -0.484,-0.253 L 0.206,-4.074 c 0,0 0.085,-0.114 0.392,-0.222 M 4.486,-5.54 C 4.486,-6.738 4.019,-7.864 3.171,-8.711 2.324,-9.557 1.198,-10.024 0,-10.024 c -1.198,0 -2.324,0.467 -3.171,1.313 -0.848,0.847 -1.314,1.973 -1.314,3.171 0,1.197 0.466,2.323 1.314,3.17 0.847,0.846 1.973,1.313 3.171,1.313 1.198,0 2.324,-0.467 3.171,-1.313 0.848,-0.847 1.315,-1.973 1.315,-3.17 M 1.584,-4.603 C 1.546,-4.719 1.483,-4.831 1.41,-4.915 L 0.937,-4.932 0.742,-5.298 c 0.147,-0.046 0.304,-0.055 0.457,-0.037 l 0.505,0.248 c 0.176,0.088 0.3,0.212 0.333,0.397 l 0.198,0.724 c 0.103,0.326 0.427,0.52 0.731,0.503 L 3.109,-3.47 3.114,-3.511 3.244,-3.59 3.298,-3.549 3.432,-3.65 3.398,-3.702 3.478,-3.831 3.565,-3.823 3.613,-3.988 3.535,-4.004 3.533,-4.14 3.622,-4.188 3.584,-4.338 3.501,-4.324 3.422,-4.416 3.475,-4.508 3.357,-4.621 3.286,-4.561 3.174,-4.606 3.177,-4.704 3.019,-4.713 3.01,-4.671 2.886,-4.638 2.834,-4.692 2.692,-4.632 2.7,-4.569 2.6,-4.5 H 2.568 l -0.069,0.073 0.003,-0.099 0.057,-0.081 0.406,-0.291 c 0.156,-0.033 0.311,-0.068 0.471,-0.092 0.142,0.097 0.305,0.171 0.465,0.237 0.022,0.204 0.021,0.449 -10e-4,0.633 -0.048,0.201 -0.111,0.39 -0.187,0.571 L 3.626,-3.444 2.95,-3.134 H 2.6 L 2.585,-3.174 2.402,-3.229 2.35,-3.192 2.178,-3.284 2.171,-3.364 2.035,-3.491 1.95,-3.47 1.847,-3.64 1.885,-3.693 1.82,-3.849 1.701,-3.863 1.647,-4.045 1.723,-4.125 1.675,-4.316 1.552,-4.333 1.501,-4.51 Z m -5.485,-0.15 c 0.16,-0.066 0.323,-0.14 0.465,-0.237 0.16,0.024 0.315,0.059 0.471,0.092 l 0.406,0.291 0.057,0.081 0.003,0.099 L -2.568,-4.5 H -2.6 l -0.1,-0.069 0.008,-0.063 -0.142,-0.06 -0.052,0.054 -0.124,-0.033 -0.009,-0.042 -0.158,0.009 0.003,0.098 -0.112,0.045 -0.072,-0.06 -0.117,0.113 0.053,0.092 -0.079,0.092 -0.083,-0.014 -0.037,0.15 0.088,0.048 -0.002,0.136 -0.078,0.016 0.048,0.165 0.087,-0.008 0.08,0.129 -0.034,0.052 0.134,0.101 0.054,-0.041 0.13,0.079 0.005,0.041 0.143,0.007 c 0.304,0.017 0.628,-0.177 0.731,-0.503 l 0.198,-0.724 c 0.033,-0.185 0.157,-0.309 0.333,-0.397 l 0.505,-0.248 c 0.153,-0.018 0.31,-0.009 0.457,0.037 l -0.195,0.366 -0.473,0.017 c -0.073,0.084 -0.136,0.196 -0.174,0.312 l 0.083,0.093 -0.051,0.177 -0.123,0.017 -0.048,0.191 0.076,0.08 -0.054,0.182 -0.119,0.014 -0.065,0.156 0.038,0.053 -0.103,0.17 -0.085,-0.021 -0.136,0.127 -0.007,0.08 -0.172,0.092 -0.052,-0.037 -0.183,0.055 -0.015,0.04 h -0.35 l -0.676,-0.31 -0.087,-0.105 C -3.789,-3.73 -3.852,-3.919 -3.9,-4.12 -3.922,-4.304 -3.923,-4.549 -3.901,-4.753 m 1.521,-3.186 c 0.101,0.164 0.125,0.234 0.297,0.659 0.206,0.451 0.209,0.515 0.217,0.574 l -0.014,0.111 -0.101,0.225 c -0.059,0.139 -0.1,0.138 -0.105,0.139 l 0.035,-0.08 -0.047,-0.065 0.013,-0.191 0.079,-0.004 -0.007,-0.214 -0.096,-0.008 -0.04,-0.17 0.032,-0.043 C -2.151,-7.111 -2.185,-7.151 -2.224,-7.173 L -2.309,-7.125 -2.448,-7.24 -2.42,-7.345 C -2.436,-7.36 -2.522,-7.408 -2.621,-7.409 l -0.057,0.102 -0.18,-0.019 -0.018,-0.106 -0.204,0.037 -0.01,0.144 -0.155,0.057 -0.076,-0.057 -0.16,0.173 0.071,0.078 -0.097,0.165 -0.076,-0.006 -0.043,0.237 0.062,0.015 v 0.211 l -0.032,0.02 0.011,0.054 c 0.254,0.445 0.343,0.558 0.864,0.694 l 0.141,-0.003 c 0.469,-0.161 0.9,-0.341 1.328,-0.533 l 0.149,0.002 0.542,0.233 c 0.146,0.081 0.284,0.153 0.401,0.199 l -0.006,0.164 C -0.291,-5.48 -0.542,-5.377 -0.542,-5.377 -0.8,-5.579 -1.037,-5.711 -1.07,-5.711 l -0.062,0.022 -0.004,0.117 -0.162,0.096 -0.088,-0.077 -0.169,0.09 10e-4,0.1 -0.162,0.085 -0.079,-0.059 -0.14,0.055 -0.003,0.062 c -0.107,0.044 -0.178,0.036 -0.178,0.036 l -0.045,-0.063 c -0.566,0.199 -1.369,0.124 -1.578,-0.013 -0.229,-0.247 -0.289,-0.821 -0.179,-1.451 0.099,-0.564 0.419,-0.998 0.792,-1.366 0.237,0.004 0.561,0.088 0.746,0.138 m 2.297,2.063 -0.203,-0.074 C -0.332,-6.048 -0.525,-6.276 -0.601,-6.3 l -0.064,-0.004 -0.064,0.061 -0.184,-0.068 -0.003,-0.129 -0.197,-0.074 -0.08,0.076 -0.182,-0.067 -0.003,-0.117 -0.165,-0.07 -0.046,0.025 -0.073,-0.061 -0.006,-0.084 c 0,0 -0.33,-0.505 -0.567,-1.311 l 0.024,-0.195 c 0.299,-0.409 0.663,-0.768 1.138,-1.042 l 0.748,0.229 c 0.104,0.188 0.173,0.387 0.242,0.586 l -0.014,0.905 c -0.114,0.118 -0.216,0.232 -0.363,0.286 l -0.122,0.025 c 0.096,-0.046 0.079,-0.12 0.065,-0.148 l 0.093,-0.131 0.075,0.014 0.08,-0.16 -0.075,-0.05 0.045,-0.175 0.04,-0.006 0.003,-0.19 -0.106,-0.003 -0.062,-0.146 0.064,-0.1 -0.135,-0.132 -0.093,0.063 -0.132,-0.089 0.02,-0.116 -0.189,-0.05 -0.048,0.102 -0.182,-0.007 -0.037,-0.095 -0.196,0.082 0.013,0.102 -0.149,0.095 -0.071,-0.041 -0.12,0.157 0.056,0.057 -0.11,0.181 h -0.052 c -0.076,0.473 0.21,0.799 0.362,0.955 0.082,0.077 0.162,0.139 0.268,0.172 l 0.789,0.169 0.283,0.336 z m 0.126,0.731 V -5.4 l 0.183,0.056 v 0.245 l 0.064,0.008 v -0.228 l 0.157,0.069 0.021,0.212 0.054,0.006 -0.015,-0.188 0.151,0.072 0.021,0.02 0.081,0.213 -0.018,0.018 -0.065,0.008 -0.033,0.043 0.212,0.093 0.315,0.011 c 0,0 0.128,0.156 0.193,0.509 l -0.107,0.08 -0.052,0.069 -0.005,0.121 0.085,0.347 c 0,0 0.066,0.296 0.079,0.508 0.012,0.212 0.004,0.372 -0.025,0.504 0,0 -0.099,0.292 -0.409,0.521 C 0.62,-1.854 0.478,-1.861 0.325,-1.837 0.172,-1.813 0,-1.83 0,-1.83 c 0,0 -0.172,0.017 -0.325,-0.007 -0.153,-0.024 -0.295,-0.017 -0.605,-0.246 -0.31,-0.229 -0.409,-0.521 -0.409,-0.521 -0.029,-0.132 -0.037,-0.292 -0.025,-0.504 0.013,-0.212 0.079,-0.508 0.079,-0.508 l 0.085,-0.347 -0.006,-0.121 -0.051,-0.069 -0.107,-0.08 c 0.065,-0.353 0.193,-0.509 0.193,-0.509 l 0.315,-0.011 0.212,-0.093 -0.033,-0.043 -0.065,-0.008 -0.018,-0.018 0.081,-0.213 0.021,-0.02 0.151,-0.072 -0.015,0.188 0.054,-0.006 0.021,-0.212 0.158,-0.069 v 0.228 l 0.063,-0.008 V -5.344 L -0.043,-5.4 v 0.255 H 0 Z M 2.235,-8.123 C 1.998,-7.317 1.668,-6.812 1.668,-6.812 L 1.662,-6.728 1.589,-6.667 1.543,-6.692 1.378,-6.622 1.375,-6.505 1.193,-6.438 1.113,-6.514 0.917,-6.44 0.913,-6.311 0.729,-6.243 0.665,-6.304 0.601,-6.3 C 0.525,-6.276 0.332,-6.048 0.286,-5.95 L 0.083,-5.876 V -6.483 L 0.366,-6.819 1.155,-6.988 C 1.261,-7.021 1.341,-7.083 1.423,-7.16 1.575,-7.316 1.861,-7.642 1.785,-8.115 H 1.733 L 1.623,-8.296 1.679,-8.353 1.559,-8.51 1.488,-8.469 1.339,-8.564 1.352,-8.666 1.156,-8.748 1.119,-8.653 0.937,-8.646 0.889,-8.748 0.7,-8.698 0.72,-8.582 0.588,-8.493 0.495,-8.556 0.36,-8.424 l 0.064,0.1 -0.062,0.146 -0.106,0.003 0.002,0.19 0.041,0.006 0.045,0.175 -0.075,0.05 0.08,0.16 0.075,-0.014 0.093,0.131 c -0.014,0.028 -0.031,0.102 0.065,0.148 L 0.46,-7.354 C 0.313,-7.408 0.211,-7.522 0.097,-7.64 L 0.083,-8.545 C 0.152,-8.744 0.221,-8.943 0.325,-9.131 L 1.073,-9.36 c 0.475,0.274 0.839,0.633 1.138,1.042 l 0.024,0.195 m 1.683,1.412 c 0.11,0.63 0.051,1.204 -0.179,1.451 -0.209,0.137 -1.012,0.212 -1.578,0.013 l -0.045,0.063 c 0,0 -0.071,0.008 -0.178,-0.036 L 1.935,-5.282 1.795,-5.337 1.716,-5.278 1.554,-5.363 1.555,-5.463 1.386,-5.553 1.298,-5.476 1.136,-5.572 1.132,-5.689 1.07,-5.711 c -0.033,0 -0.27,0.132 -0.528,0.334 0,0 -0.251,-0.103 -0.376,-0.171 L 0.16,-5.712 C 0.277,-5.758 0.415,-5.83 0.561,-5.911 l 0.542,-0.233 0.149,-0.002 c 0.428,0.192 0.859,0.372 1.328,0.533 l 0.141,0.003 c 0.521,-0.136 0.61,-0.249 0.864,-0.694 L 3.596,-6.358 3.564,-6.378 V -6.589 L 3.626,-6.604 3.583,-6.841 3.507,-6.835 3.41,-7 3.481,-7.078 3.321,-7.251 3.246,-7.194 3.091,-7.251 3.08,-7.395 2.876,-7.432 2.858,-7.326 2.678,-7.307 2.621,-7.409 C 2.522,-7.408 2.436,-7.36 2.42,-7.345 L 2.448,-7.24 2.309,-7.125 2.224,-7.173 c -0.039,0.022 -0.073,0.062 -0.107,0.167 l 0.032,0.043 -0.04,0.17 -0.096,0.008 -0.007,0.214 0.079,0.004 0.013,0.191 -0.047,0.065 0.035,0.08 C 2.081,-6.232 2.04,-6.231 1.981,-6.37 L 1.88,-6.595 1.866,-6.706 C 1.874,-6.765 1.877,-6.829 2.083,-7.28 2.256,-7.705 2.28,-7.775 2.38,-7.939 c 0.185,-0.05 0.509,-0.134 0.746,-0.138 0.373,0.368 0.693,0.802 0.792,1.366" />
        </g>
      </g>
    </g>
</svg>
