<?xml version="1.0" encoding="UTF-8" standalone="no"?>
<svg
   xmlns:dc="http://purl.org/dc/elements/1.1/"
   xmlns:cc="http://creativecommons.org/ns#"
   xmlns:rdf="http://www.w3.org/1999/02/22-rdf-syntax-ns#"
   xmlns:svg="http://www.w3.org/2000/svg"
   xmlns="http://www.w3.org/2000/svg"
   xmlns:sodipodi="http://sodipodi.sourceforge.net/DTD/sodipodi-0.dtd"
   xmlns:inkscape="http://www.inkscape.org/namespaces/inkscape"
   height="11mm"
   width="11mm"
   id="svg2"
   version="1.1"
   inkscape:version="0.91 r13725"
   sodipodi:docname="recruit.svg">
  <metadata
     id="metadata12">
    <rdf:RDF>
      <cc:Work
         rdf:about="">
        <dc:format>image/svg+xml</dc:format>
        <dc:type
           rdf:resource="http://purl.org/dc/dcmitype/StillImage" />
        <dc:title></dc:title>
      </cc:Work>
    </rdf:RDF>
  </metadata>
  <defs
     id="defs10" />
  <sodipodi:namedview
     pagecolor="#ffffff"
     bordercolor="#666666"
     borderopacity="1"
     objecttolerance="10"
     gridtolerance="10"
     guidetolerance="10"
     inkscape:pageopacity="0"
     inkscape:pageshadow="2"
     inkscape:window-width="1710"
     inkscape:window-height="1231"
     id="namedview8"
     showgrid="false"
     inkscape:zoom="14.176121"
     inkscape:cx="29.308342"
     inkscape:cy="16.131967"
     inkscape:window-x="65"
     inkscape:window-y="24"
     inkscape:window-maximized="0"
     inkscape:current-layer="svg2" />
  <path
     d="m 39.482896,15.345267 -12.134,8.71 4.831,14.688 -12.297,-9.218 -12.5579997,9.368 4.9529997,-14.716 -12.11199963,-9.117 15.40499963,0.015 4.28,-15.21299987 4.28,15.50599987 15.352,-0.024 z"
     id="path4"
     inkscape:connector-curvature="0"
     style="fill:#c4a653" />
  <path
     d="m 19.757896,19.227267 0.22,-17.6899999 3.724,13.9119999 -3.944,3.778 z m 18.592,-3.428 -12.208,7.655 -6.227,-3.934 18.435,-3.721 z m -18.56,3.878 0.129,9.572 11.196,8.128 -11.325,-17.7 z m -11.6729997,17.952 11.5149997,-17.952 -7.037,4.51 -4.4779997,13.442 z m 11.4199997,-18.297 -3.85,-3.85 -14.1639997,-0.095 18.0139997,3.945 z"
     id="path6"
     inkscape:connector-curvature="0"
     style="fill:#726939" />
</svg>
