<?xml version="1.0" encoding="UTF-8" standalone="no"?>
<svg xmlns="http://www.w3.org/2000/svg" height="20mm" width="18mm">
<path d="M48.23 28.33l-12.134 8.71 4.831 14.688L28.63 42.51l-12.558 9.368 4.953-14.716-12.112-9.117 15.405.015 4.28-15.213 4.28 15.506 15.352-.024z" fill="#c4a653"/>
<path d="M28.505 32.212l.22-17.69 3.724 13.912-3.944 3.778zm18.592-3.428l-12.208 7.655-6.227-3.934 18.435-3.721zm-18.56 3.878l.129 9.572 11.196 8.128-11.325-17.7zM16.864 50.614l11.515-17.952-7.037 4.51-4.478 13.442zm11.42-18.297l-3.85-3.85-14.164-.095 18.014 3.945z" fill="#726939"/>
</svg>