<?xml version="1.0" encoding="UTF-8" standalone="no"?>
<svg xmlns="http://www.w3.org/2000/svg" version="1.1" viewBox="0 0 11.05 11.05" height="100" width="100">
   <g transform="scale(1,-1) translate(0,-6.35)">
        <g
           transform="translate(10.7883,0.7763)"
           id="g324">
          <path
             style="fill:#ffffff;fill-opacity:1;fill-rule:nonzero;stroke:none"
             d="m 0,0 c 0,-2.864 -2.321,-5.185 -5.185,-5.185 -2.864,0 -5.186,2.321 -5.186,5.185 0,2.864 2.322,5.185 5.186,5.185 C -2.321,5.185 0,2.864 0,0" />
        </g>
        <g
           transform="translate(0.26,0.7521)"
           id="g328">
          <path
             style="fill:#ffffff;fill-opacity:1;fill-rule:nonzero;stroke:none"
             d="m 0,0 c 0,2.92 2.368,5.287 5.287,5.287 2.92,0 5.287,-2.367 5.287,-5.287 0,-2.92 -2.367,-5.288 -5.287,-5.288 C 2.368,-5.288 0,-2.92 0,0" />
        </g>
        <g
           transform="translate(5.5177,6.3463)"
           id="g332">
          <path
             style="fill:#231f20;fill-opacity:1;fill-rule:nonzero;stroke:none"
             d="m 0,0 c -3.059,0 -5.54,-2.481 -5.54,-5.541 0,-3.059 2.481,-5.54 5.54,-5.54 3.06,0 5.541,2.481 5.541,5.54 C 5.541,-2.481 3.06,0 0,0 m 3.233,-4.532 c 0.421,0.114 0.928,0.126 1.375,0.035 0.047,-0.206 0.079,-0.417 0.098,-0.632 -0.465,0.231 -0.94,0.44 -1.445,0.57 v 0.016 l 0.008,0.002 -0.036,0.009 m 0.994,1.099 C 3.917,-3.358 3.571,-3.3 3.259,-3.246 l -0.026,10e-4 -0.059,0.081 c 0.235,0.153 0.565,0.15 0.848,0.097 0.073,-0.118 0.142,-0.241 0.205,-0.366 m -1.668,1 v 10e-4 l -0.01,-10e-4 -0.058,0.038 v 0.123 c 0.182,0.124 0.386,0.219 0.61,0.26 l 0.025,0.005 c 0.17,-0.15 0.329,-0.311 0.476,-0.484 -0.336,0.052 -0.711,0.022 -1.043,0.058 M 1.107,-3.245 c 0.069,-0.048 0.144,-0.09 0.24,-0.085 L 1.54,-3.533 C 1.601,-3.781 1.355,-3.939 1.184,-4.064 L 0.999,-3.87 0.908,-3.732 C 0.831,-3.591 0.776,-3.425 0.7,-3.283 0.606,-3.103 0.449,-2.956 0.23,-2.956 L 0,-2.969 c -0.225,-0.014 -0.444,-0.054 -0.556,-0.265 l -0.143,-0.049 -0.214,-0.208 -0.011,-0.224 0.017,-0.017 0.186,-0.127 0.086,0.144 c 0.095,-0.006 0.272,0.107 0.298,-0.059 0.033,-0.15 -0.005,-0.256 -0.074,-0.374 -0.23,-0.181 -0.539,-0.037 -0.753,0.07 l -0.019,0.014 c -0.171,0.125 -0.417,0.283 -0.356,0.531 l 0.193,0.203 c 0.096,-0.005 0.171,0.037 0.24,0.085 0.172,0.224 0.011,0.503 -0.048,0.722 -0.135,0.317 -0.38,0.567 -0.653,0.774 -0.155,0.118 -0.318,0.22 -0.474,0.314 0.68,0.382 1.464,0.6 2.3,0.6 0.828,0 1.605,-0.214 2.281,-0.589 C 2.138,-1.521 1.968,-1.627 1.808,-1.749 1.535,-1.956 1.29,-2.206 1.155,-2.523 1.096,-2.742 0.935,-3.021 1.107,-3.245 m -0.143,-6.906 c -0.242,0.612 -0.428,1.254 -0.555,1.916 l -0.013,0.069 c 0.373,-0.594 0.728,-1.22 0.99,-1.877 -0.139,-0.042 -0.279,-0.078 -0.422,-0.108 M 0.038,-3.229 0,-3.233 c -0.102,-0.011 -0.199,-0.042 -0.282,-0.074 0.005,0.082 0.165,0.121 0.282,0.091 l 0.038,-0.013 m -3.133,1.216 c 0.222,-0.041 0.424,-0.136 0.605,-0.259 v -0.123 l -0.059,-0.038 -0.01,10e-4 -10e-4,-10e-4 c -0.316,-0.035 -0.674,-0.008 -0.999,-0.052 0.144,0.168 0.298,0.325 0.464,0.472 m -0.078,-1.151 -0.06,-0.081 -0.025,-10e-4 c -0.298,-0.051 -0.627,-0.107 -0.926,-0.176 0.063,0.123 0.132,0.245 0.204,0.362 0.274,0.045 0.584,0.041 0.807,-0.104 m -0.086,-1.379 v -0.016 c -0.492,-0.127 -0.955,-0.327 -1.408,-0.551 0.02,0.211 0.052,0.419 0.098,0.621 0.437,0.082 0.928,0.068 1.336,-0.043 l -0.035,-0.009 0.009,-0.002 m -1.362,-1.783 c 0.402,0.221 0.822,0.395 1.266,0.516 0.177,0.018 0.386,0.119 0.561,0.074 l 0.005,10e-4 0.203,-0.085 c 0.075,-0.166 -0.08,-0.241 -0.17,-0.337 -0.538,-0.366 -1.07,-0.759 -1.557,-1.223 -0.142,0.333 -0.246,0.686 -0.308,1.054 m 2.174,-1.126 c 0.241,0.121 0.495,0.213 0.764,0.264 l 0.259,-0.008 0.009,-0.019 c -0.129,-0.112 -0.284,-0.166 -0.401,-0.31 -0.193,-0.122 -0.225,-0.486 -0.514,-0.342 -0.152,0.218 -0.23,-0.007 -0.354,-0.09 L -2.776,-7.985 H -2.779 L -2.785,-7.99 -2.827,-8.043 v -0.009 -0.161 -0.001 l 0.065,0.086 c 0.127,-0.04 0.133,0.128 0.242,0.098 l 0.03,-0.013 C -2.521,-8.145 -2.645,-8.08 -2.693,-8.177 l -0.047,-0.122 -0.027,-0.075 0.027,-0.07 c 0.031,0.085 0.143,0.053 0.159,0.15 0.095,0.036 0.189,0.176 0.283,0.095 l 0.006,-0.005 -0.144,-0.127 -0.006,-0.072 -0.043,-0.07 -0.031,-0.114 0.005,-0.012 0.096,0.049 c 0.129,0.037 0.209,0.18 0.299,0.24 l 0.02,-0.077 0.002,-0.105 c -0.131,-0.067 -0.063,-0.202 -0.129,-0.282 l -0.005,-0.006 0.182,0.053 c 0.181,0.155 0.128,0.513 0.322,0.606 l 0.083,0.021 c 0.151,0.036 0.308,0.058 0.456,0.105 0.143,0.048 0.293,0.134 0.426,0.155 l -0.067,-0.081 0.019,0.005 c -0.499,-0.582 -0.921,-1.194 -1.272,-1.837 -0.642,0.321 -1.2,0.783 -1.633,1.346 0.37,0.412 0.794,0.743 1.265,0.955 m 1.066,-2.582 c 0.262,0.654 0.614,1.277 0.986,1.868 l -0.013,-0.069 c -0.128,-0.66 -0.312,-1.298 -0.552,-1.908 -0.143,0.03 -0.284,0.067 -0.421,0.109 m 3.469,0.267 c -0.353,0.648 -0.777,1.264 -1.28,1.851 L 0.827,-7.921 0.759,-7.84 C 0.893,-7.861 1.043,-7.947 1.186,-7.995 1.334,-8.042 1.491,-8.064 1.642,-8.1 L 1.725,-8.121 C 1.919,-8.214 1.866,-8.572 2.047,-8.727 L 2.229,-8.78 2.224,-8.774 2.197,-8.647 c 0.03,0.112 -0.097,0.165 -0.102,0.26 l 0.022,0.077 c 0.091,-0.06 0.17,-0.203 0.299,-0.24 l 0.096,-0.049 0.005,0.012 -0.031,0.114 -0.043,0.07 -0.006,0.072 -0.144,0.127 0.005,0.005 c 0.095,0.081 0.189,-0.059 0.284,-0.095 0.016,-0.097 0.128,-0.065 0.159,-0.15 l 0.027,0.07 -0.027,0.075 -0.047,0.122 C 2.646,-8.08 2.522,-8.145 2.491,-8.043 l 0.03,0.013 C 2.63,-8 2.636,-8.168 2.763,-8.128 l 0.065,-0.086 v 0.001 0.161 0.009 L 2.786,-7.99 2.779,-7.985 H 2.776 L 2.685,-7.957 C 2.56,-7.874 2.482,-7.649 2.33,-7.867 2.042,-8.011 2.01,-7.647 1.817,-7.525 1.7,-7.381 1.545,-7.327 1.416,-7.215 l 0.01,0.019 0.258,0.008 c 0.269,-0.051 0.523,-0.143 0.764,-0.264 0.48,-0.216 0.911,-0.554 1.285,-0.978 -0.437,-0.56 -1,-1.02 -1.645,-1.337 m 0.669,3.61 c -0.09,0.096 -0.245,0.171 -0.17,0.337 L 2.79,-5.735 2.794,-5.736 C 2.97,-5.691 3.179,-5.792 3.356,-5.81 3.813,-5.935 4.243,-6.115 4.655,-6.345 4.592,-6.715 4.485,-7.07 4.34,-7.405 3.846,-6.93 3.304,-6.529 2.757,-6.157" />
        </g>
        </g>
</svg>
